<svg width="143" height="161" viewBox="0 0 143 161" fill="none" xmlns="http://www.w3.org/2000/svg">
<g clip-path="url(#clip0_3248_14789)">
<path d="M118.037 101.567H136.37V97.5489L133.5 96.6781H107.907L91.7962 89.2707H99.7036V87.4189L98.0925 87.1042H87.0924L79.685 83.5117H77.8331L83.1109 87.1042H59.4998L64.7777 83.6781H62.5183L55.3331 87.1413H44.222L42.6294 87.6413V89.2897H50.8703L35.1296 96.8454H9.81466L6.11095 97.9929V101.697H24.9073L2.68507 112.401V119.197H9.57391L36.6109 101.585H106.148L133.111 118.808H139.796V111.901L118.037 101.567ZM44.0925 96.7342L55.8887 89.1414H86.6665L98.4443 96.7342H44.0925Z" fill="#1F7B44"/>
<path d="M61.6299 71.9367C60.9534 71.6036 60.3796 71.0942 59.9689 70.4619C59.5581 69.8295 59.3258 69.0977 59.2966 68.3442V63.9921C57.5802 63.1305 56.166 61.7681 55.2411 60.085L55.3521 68.4183C55.3521 68.4183 53.5003 67.3996 51.6484 66.307C51.0851 65.9647 50.619 65.4838 50.2948 64.9099C49.9705 64.336 49.799 63.6883 49.7966 63.0291L49.667 54.807C49.667 54.807 51.0189 55.603 52.2782 56.2882C53.0022 56.6833 53.6688 57.1756 54.2596 57.7512C53.9178 56.0516 53.8056 54.3138 53.9261 52.5845L18.3707 32.5848C17.4351 32.0378 16.3779 31.7324 15.2947 31.6969C14.2115 31.6613 13.1365 31.8969 12.167 32.3814L0.000232436 39.6775C0.000232436 39.6775 0.000232436 47.3066 0.000232436 52.0844C-0.124171 53.3001 0.0505549 54.5278 0.508859 55.6606C0.967162 56.7935 1.69524 57.7977 2.62994 58.5849L39.2411 79.2328C44.2781 82.0662 47.0188 80.4183 47.0188 80.4183C47.0188 80.4183 53.0558 76.863 55.1299 75.5852C55.9183 75.2518 56.7731 75.1043 57.6276 75.1557C58.4821 75.2071 59.3131 75.4553 60.0559 75.8809L65.167 78.7699L67.2782 77.5293V75.1593C67.2782 75.1593 64.0929 73.307 61.6299 71.9367ZM43.7041 51.5663C44.2326 51.9149 44.6741 52.3797 44.9951 52.9253C45.3161 53.471 45.508 54.0835 45.556 54.7148L45.6855 63.1223C45.6855 63.1223 44.0373 62.1772 41.9818 61.1032C41.4114 60.7503 40.9414 60.257 40.6171 59.67C40.2928 59.0829 40.125 58.4218 40.1299 57.7512L40.0189 49.5851L43.7041 51.5663ZM34.0187 46.0107C34.5472 46.3594 34.989 46.8241 35.31 47.3698C35.631 47.9155 35.8226 48.528 35.8706 49.1592L36.0003 57.5477L32.2966 55.5476C31.7275 55.1935 31.2584 54.6993 30.9342 54.1126C30.61 53.5259 30.4416 52.866 30.4448 52.1956L30.3336 44.0106L34.0187 46.0107ZM24.6114 40.7518C25.1403 41.1043 25.582 41.5721 25.9029 42.1208C26.2237 42.6694 26.4153 43.2846 26.4633 43.9184L26.6113 52.3069L23.0003 50.3067C22.4312 49.9526 21.9623 49.4593 21.6381 48.8726C21.3139 48.2859 21.1453 47.6251 21.1485 46.9548L21.0375 38.7697L24.6114 40.7518ZM17.204 36.492V41.4363L10.9633 37.8628C10.9633 37.8628 14.667 34.8438 17.204 36.492ZM4.24104 42.0475C6.90771 40.1957 8.40771 41.1406 8.40771 41.1406C8.40771 41.1406 13.1856 43.714 15.4819 45.1029C16.1582 45.5641 16.6906 46.2073 17.0182 46.9575C17.3458 47.7076 17.4551 48.5342 17.3338 49.3437C16.6989 49.9644 15.8829 50.3674 15.004 50.4939C14.1252 50.6204 13.229 50.4646 12.4448 50.0481C12.4448 50.0481 7.31506 47.159 5.57432 46.0849C3.83358 45.0108 4.27812 42.0475 4.27812 42.0475H4.24104ZM4.24104 50.0291L10.5003 53.5294L6.2595 56.1408C3.40765 54.6037 4.24104 50.0291 4.24104 50.0291ZM13.7411 60.2514L10.2781 58.3995C10.2781 58.3995 15.0373 55.344 17.1484 54.2699C17.7066 53.9503 18.3306 53.7628 18.9724 53.7211C19.6143 53.6793 20.2572 53.7848 20.8521 54.0294L24.7041 56.233C24.7041 56.233 19.5743 59.4363 17.5743 60.4548C16.9273 60.7342 16.2193 60.8423 15.5185 60.7677C14.8178 60.6931 14.1481 60.4383 13.5745 60.0289L13.7411 60.2514ZM23.4633 65.6216L20.0189 63.6775C20.0189 63.6775 24.7595 60.622 26.8706 59.5479C27.4288 59.2283 28.0528 59.0407 28.6947 58.999C29.3366 58.9573 29.9794 59.0627 30.5743 59.3074L34.4263 61.511C34.4263 61.511 29.2965 64.7143 27.315 65.7328C26.7123 66.0288 26.0467 66.1735 25.3755 66.1541C24.7043 66.1348 24.0479 65.9518 23.4633 65.6216ZM32.9447 71.0478L29.4818 69.196C29.4818 69.196 34.241 66.1404 36.3521 65.0664C36.9122 64.7519 37.5356 64.5673 38.1766 64.5256C38.8176 64.484 39.4597 64.5866 40.0558 64.8258L43.9078 67.0475C43.9078 67.0475 38.7782 70.2327 36.7782 71.2513C36.1788 71.5472 35.5159 71.692 34.8477 71.6726C34.1794 71.6533 33.526 71.4702 32.9447 71.14V71.0478ZM46.3151 76.6034C45.7133 76.8934 45.0502 77.0328 44.3825 77.0103C43.7148 76.9877 43.0626 76.8041 42.4818 76.4741L39.0189 74.5291C39.0189 74.5291 43.778 71.4736 45.8706 70.3995C46.4307 70.085 47.0542 69.9004 47.6951 69.8588C48.3361 69.8171 48.9783 69.9197 49.5743 70.159L53.4263 72.3815C53.4263 72.3815 48.1299 75.2697 46.1485 76.3068L46.3151 76.6034Z" fill="#1F7B44"/>
<path d="M75.0922 75.0661V77.4922L77.2034 78.7518L82.3145 75.8438C83.0573 75.4182 83.8883 75.17 84.7428 75.1186C85.5973 75.0672 86.4521 75.2146 87.2405 75.5481C89.3146 76.8259 95.3331 80.3812 95.3331 80.3812C95.3331 80.3812 98.0737 82.0291 103.111 79.1957L139.722 58.5478C140.657 57.7606 141.385 56.7564 141.843 55.6235C142.301 54.4907 142.476 53.263 142.352 52.0473C142.352 47.2695 142.352 39.6404 142.352 39.6404L130.185 32.3443C129.215 31.8598 128.14 31.6242 127.057 31.6598C125.974 31.6953 124.917 32.0007 123.981 32.5477L88.444 52.5473C88.5646 54.2767 88.4526 56.0145 88.1108 57.7141C88.6923 57.1356 89.3531 56.6429 90.0737 56.251C91.3329 55.5659 92.6848 54.7699 92.6848 54.7699L92.5553 62.992C92.5529 63.6512 92.3813 64.2989 92.0571 64.8728C91.7328 65.4467 91.2668 65.9276 90.7034 66.2699C88.8516 67.3624 86.9997 68.3812 86.9997 68.3812L87.1107 60.0479C86.1898 61.7276 84.7827 63.0894 83.0738 63.955V68.3071C83.0524 69.0601 82.8252 69.7924 82.4171 70.4257C82.0091 71.0589 81.4358 71.5688 80.759 71.8996C78.2775 73.307 75.0922 75.0661 75.0922 75.0661ZM102.24 49.4368L102.129 57.6029C102.134 58.276 101.966 58.9398 101.642 59.5298C101.318 60.1197 100.848 60.6167 100.277 60.9738C98.3144 62.0294 96.6849 62.974 96.6849 62.974L96.8144 54.5665C96.8624 53.9352 97.0543 53.3227 97.3753 52.777C97.6963 52.2313 98.1378 51.7666 98.6663 51.418L102.24 49.4368ZM111.926 43.8813L111.796 52.0663C111.804 52.7376 111.638 53.3992 111.314 53.9869C110.989 54.5745 110.517 55.0682 109.944 55.4183L106.24 57.4184L106.389 49.029C106.437 48.3952 106.628 47.781 106.949 47.2323C107.27 46.6836 107.712 46.215 108.24 45.8624L111.926 43.8813ZM121.314 38.6404L121.203 46.8254C121.207 47.4957 121.038 48.1556 120.714 48.7424C120.39 49.3291 119.921 49.8232 119.352 50.1774L115.74 52.1775L115.87 43.7881C115.918 43.1543 116.11 42.5401 116.43 41.9914C116.751 41.4427 117.193 40.9741 117.722 40.6215L121.314 38.6404ZM131.5 37.7325L125.24 41.3069V36.3626C127.852 34.7145 131.5 37.7325 131.5 37.7325ZM137.055 45.8814C135.315 46.9555 130.166 49.8437 130.166 49.8437C129.384 50.2625 128.489 50.4226 127.61 50.2994C126.731 50.1763 125.914 49.7769 125.277 49.1592C125.158 48.3499 125.269 47.5227 125.596 46.773C125.923 46.0233 126.455 45.3811 127.129 44.9184C129.426 43.511 134.222 40.9362 134.222 40.9362C134.222 40.9362 135.703 40.0658 138.389 41.8621C138.389 41.8621 138.814 44.8073 137.092 45.8814H137.055ZM136.296 55.9554L132.055 53.3259L138.333 49.8437C138.333 49.8437 139.148 54.3993 136.296 55.9364V55.9554ZM124.981 60.1772C123 59.1402 117.851 55.9554 117.851 55.9554L121.722 53.7328C122.319 53.4936 122.962 53.3931 123.603 53.438C124.245 53.4829 124.868 53.6723 125.426 53.9923C127.518 55.0478 132.277 58.1029 132.277 58.1029L128.814 59.9548C128.233 60.2849 127.58 60.468 126.912 60.4873C126.243 60.5067 125.581 60.3619 124.981 60.066V60.1772ZM115.259 65.5474C113.259 64.5103 108.129 61.3256 108.129 61.3256L112 59.103C112.595 58.8583 113.238 58.7529 113.879 58.7946C114.521 58.8364 115.145 59.0248 115.703 59.3444C117.796 60.4185 122.555 63.474 122.555 63.474L119.092 65.4181C118.511 65.7483 117.858 65.9313 117.189 65.9507C116.521 65.97 115.858 65.8253 115.259 65.5293V65.5474ZM105.777 70.9736C103.796 69.9366 98.6477 66.7518 98.6477 66.7518L102.5 64.5292C103.097 64.294 103.74 64.195 104.381 64.2399C105.022 64.2847 105.644 64.4726 106.203 64.7887C108.296 65.8628 113.055 68.8993 113.055 68.8993L109.592 70.7512C109.011 71.0812 108.359 71.2657 107.692 71.2883C107.024 71.3109 106.361 71.1715 105.759 70.8814L105.777 70.9736ZM89.1107 72.103L92.9627 69.8813C93.5598 69.6435 94.2029 69.5435 94.8441 69.5884C95.4853 69.6332 96.1082 69.8212 96.6664 70.1399C98.7775 71.214 103.518 74.2695 103.518 74.2695L100.074 76.2145C99.4924 76.5447 98.839 76.7277 98.1708 76.7471C97.5025 76.7665 96.8399 76.6217 96.2405 76.3257C94.2405 75.2887 89.1107 72.103 89.1107 72.103Z" fill="#1F7B44"/>
<path d="M86.2961 54.4188C86.2961 54.4188 86.2961 16.0112 86.2961 12.6409C86.2613 11.618 85.9867 10.6176 85.4945 9.72023C85.0024 8.82284 84.3065 8.05342 83.4627 7.47414L71.1294 0.400391C71.1294 0.400391 65.0738 3.78932 60.4441 6.45598C55.8145 9.12265 55.9072 12.7702 55.9072 12.7702C55.9072 12.7702 55.9072 49.8075 55.9072 54.3075C55.8411 55.5248 56.0349 56.7426 56.4755 57.8792C56.9161 59.0159 57.5935 60.0455 58.4628 60.9002C60.886 62.6893 63.4571 64.2687 66.148 65.6221C67.0514 66.0595 67.8067 66.7526 68.3202 67.615C68.8337 68.4774 69.0827 69.4715 69.0368 70.4742V78.4368L71.1294 79.6041L73.1478 78.4368V70.4932C73.0645 69.7128 73.1785 68.9239 73.4794 68.1992C73.7804 67.4744 74.2586 66.8364 74.8701 66.3446L81.9256 62.1598C83.3395 61.4483 84.51 60.3318 85.2882 58.9535C86.0663 57.5751 86.4173 55.997 86.2961 54.4188ZM64.2034 8.93717V16.1221L59.8702 13.6961C60.0368 10.2887 64.2034 8.97425 64.2034 8.97425V8.93717ZM69.0182 62.6409C69.0182 62.6409 64.1663 59.7891 62.0367 58.5854C61.4134 58.213 60.8958 57.687 60.5327 57.0582C60.1697 56.4294 59.9735 55.7189 59.9626 54.993V51.1039L66.7219 54.974C67.3515 55.2293 67.8989 55.6528 68.3039 56.1983C68.7089 56.7437 68.9559 57.3899 69.0182 58.0664V62.6409ZM69.0182 51.7522C69.0182 51.7522 64.1663 48.9005 62.0367 47.6968C61.4134 47.3244 60.8958 46.7983 60.5327 46.1695C60.1697 45.5408 59.9735 44.8302 59.9626 44.1043V40.2152L66.7219 44.0853C67.3481 44.3433 67.8914 44.768 68.293 45.3132C68.6946 45.8585 68.939 46.5033 68.9997 47.1777L69.0182 51.7522ZM69.0182 40.6411C69.0182 40.6411 64.1663 37.7894 62.0367 36.5857C61.4134 36.2132 60.8958 35.6872 60.5327 35.0584C60.1697 34.4296 59.9735 33.7191 59.9626 32.9932V29.1041L66.7219 32.9742C67.3515 33.2295 67.8989 33.653 68.3039 34.1985C68.7089 34.7439 68.9559 35.3901 69.0182 36.0666V40.6411ZM69.0182 29.7524C69.0182 29.7524 64.1663 26.8998 62.0367 25.6961C61.4134 25.3237 60.8958 24.7985 60.5327 24.1697C60.1697 23.541 59.9735 22.8295 59.9626 22.1036V18.2335L66.7219 22.1036C67.3481 22.3616 67.8914 22.7863 68.293 23.3315C68.6946 23.8768 68.939 24.5216 68.9997 25.196L69.0182 29.7524ZM71.1108 19.9371C70.3738 19.6736 69.7198 19.22 69.2156 18.6214C68.7113 18.0228 68.375 17.301 68.2406 16.5299V7.95609C68.6295 6.10424 71.1108 4.95587 71.1108 4.95587C71.8055 5.18829 72.4357 5.58125 72.9505 6.10243C73.4652 6.62361 73.85 7.25858 74.0737 7.95609V16.3817C73.9716 17.213 73.6405 18 73.1173 18.654C72.5941 19.308 71.8994 19.8033 71.1108 20.0854V19.9371ZM82.2219 54.993C82.2059 55.7178 82.0075 56.4267 81.645 57.0546C81.2825 57.6825 80.7676 58.2091 80.1479 58.5854C78.0182 59.7891 73.1663 62.6409 73.1663 62.6409V58.0664C73.2286 57.3899 73.4759 56.7437 73.8809 56.1983C74.2859 55.6528 74.833 55.2293 75.4626 54.974L82.2219 51.1039V54.993ZM82.2219 44.1043C82.2059 44.8291 82.0075 45.538 81.645 46.1659C81.2825 46.7938 80.7676 47.3204 80.1479 47.6968C78.0182 48.9005 73.1663 51.7522 73.1663 51.7522V47.1777C73.2496 46.504 73.5166 45.8664 73.9379 45.334C74.3592 44.8017 74.9187 44.3953 75.5553 44.1594L82.3146 40.2894L82.2219 44.1043ZM82.2219 32.9932C82.2059 33.718 82.0075 34.4269 81.645 35.0548C81.2825 35.6827 80.7676 36.2093 80.1479 36.5857C78.0182 37.7894 73.1663 40.6221 73.1663 40.6221V36.0666C73.2496 35.3929 73.5166 34.7553 73.9379 34.2229C74.3592 33.6906 74.9187 33.2842 75.5553 33.0483L82.3146 29.1782L82.2219 32.9932ZM82.2219 22.1036C82.2059 22.8284 82.0075 23.5382 81.645 24.1661C81.2825 24.794 80.7676 25.3197 80.1479 25.6961C78.0182 26.8998 73.1663 29.7524 73.1663 29.7524V25.178C73.2286 24.5014 73.4759 23.8553 73.8809 23.3098C74.2859 22.7644 74.833 22.3408 75.4626 22.0855L82.2219 18.2154V22.1036ZM78.0182 16.048V8.97425C78.0182 8.97425 82.185 10.3258 82.3517 13.7332L78.0182 16.048Z" fill="#1F7B44"/>
<path d="M0 153.418V128.604H18.852V132.937H5.18528V138.844H18.8334V143.178H5.18528V149.122H18.8334V153.418H0Z" fill="#1F7B44"/>
<path d="M28.148 153.695C27.0534 153.716 25.9673 153.501 24.9629 153.066C24.0683 152.677 23.3081 152.033 22.7776 151.214C22.2122 150.291 21.9291 149.222 21.9629 148.14C21.9294 147.235 22.1269 146.337 22.5368 145.529C22.8963 144.834 23.4329 144.246 24.0923 143.825C24.7773 143.376 25.5358 143.05 26.3332 142.862C27.1959 142.637 28.0751 142.482 28.9627 142.399C30.0553 142.288 30.9257 142.177 31.5924 142.066C32.0943 142.023 32.5808 141.871 33.0184 141.621C33.1698 141.525 33.2925 141.391 33.374 141.232C33.4554 141.072 33.4925 140.893 33.4813 140.714C33.5115 140.371 33.4619 140.025 33.3367 139.703C33.2114 139.382 33.0138 139.095 32.7591 138.862C32.1752 138.406 31.443 138.181 30.7036 138.232C29.9167 138.194 29.1381 138.409 28.4812 138.843C27.9612 139.225 27.5782 139.764 27.3887 140.381L22.611 139.992C22.8321 138.903 23.3293 137.889 24.0552 137.048C24.8071 136.211 25.7555 135.575 26.8147 135.196C28.066 134.713 29.3998 134.48 30.7406 134.51C31.7459 134.51 32.7474 134.635 33.7221 134.881C34.6236 135.101 35.4771 135.483 36.2406 136.011C37.0128 136.499 37.6497 137.174 38.0924 137.974C38.5426 138.855 38.7653 139.836 38.7405 140.826V153.418H33.8331V150.825H33.685C33.3929 151.415 32.9832 151.938 32.4813 152.363C31.9364 152.824 31.3076 153.176 30.6294 153.4C29.8245 153.636 28.9859 153.735 28.148 153.695ZM29.6293 150.122C30.3278 150.135 31.0197 149.982 31.648 149.677C32.2023 149.386 32.6738 148.959 33.0184 148.436C33.3736 147.886 33.5484 147.239 33.5184 146.585V144.603C33.3098 144.73 33.0855 144.829 32.8515 144.899L31.9073 145.122L30.8702 145.307L29.9257 145.455C29.3788 145.518 28.843 145.655 28.3331 145.862C27.9162 146.028 27.5517 146.303 27.2777 146.659C27.0132 147.009 26.8818 147.442 26.9072 147.88C26.8913 148.188 26.9525 148.496 27.0851 148.774C27.2176 149.052 27.4174 149.292 27.6665 149.474C28.2338 149.896 28.9222 150.123 29.6293 150.122Z" fill="#1F7B44"/>
<path d="M58.2781 140.122L53.5372 140.418C53.4687 140.013 53.2892 139.635 53.0187 139.326C52.7398 138.983 52.3848 138.71 51.9817 138.529C51.4907 138.319 50.9601 138.218 50.4263 138.233C49.7195 138.203 49.0189 138.377 48.4076 138.733C48.1574 138.859 47.9472 139.053 47.8002 139.291C47.6531 139.53 47.5749 139.804 47.5743 140.084C47.5748 140.301 47.6232 140.515 47.7161 140.71C47.8089 140.906 47.944 141.078 48.1114 141.215C48.6667 141.595 49.299 141.848 49.9633 141.955L53.3336 142.622C54.8269 142.865 56.2275 143.504 57.389 144.474C57.8317 144.89 58.1801 145.396 58.4101 145.958C58.6401 146.521 58.7467 147.126 58.7225 147.733C58.7471 148.894 58.3672 150.026 57.6483 150.937C56.8718 151.903 55.857 152.649 54.7039 153.104C53.34 153.629 51.8877 153.887 50.4263 153.863C48.3516 153.971 46.2943 153.434 44.5373 152.326C43.8345 151.844 43.2417 151.218 42.798 150.49C42.3543 149.763 42.0699 148.949 41.9632 148.103L47.0558 147.845C47.1145 148.189 47.2435 148.518 47.4346 148.811C47.6258 149.104 47.8749 149.355 48.1668 149.548C48.8419 149.971 49.6304 150.178 50.4263 150.14C51.195 150.178 51.9586 149.999 52.6298 149.622C52.8788 149.489 53.0875 149.292 53.2341 149.051C53.3807 148.81 53.4598 148.534 53.4631 148.251C53.4617 148.024 53.4075 147.801 53.3046 147.599C53.2018 147.396 53.0532 147.22 52.8706 147.085C52.3161 146.713 51.6815 146.478 51.0187 146.4L47.7965 145.751C46.2926 145.544 44.8825 144.9 43.7409 143.899C43.2986 143.444 42.9527 142.905 42.7236 142.313C42.4945 141.722 42.387 141.089 42.4076 140.455C42.3776 139.343 42.7234 138.254 43.3891 137.363C44.1038 136.459 45.0514 135.768 46.1298 135.363C47.4628 134.871 48.8759 134.632 50.2965 134.659C52.2607 134.556 54.2065 135.082 55.8521 136.159C56.5103 136.614 57.0662 137.201 57.484 137.884C57.9017 138.566 58.1722 139.328 58.2781 140.122Z" fill="#1F7B44"/>
<path d="M65.1484 160.401C64.5281 160.402 63.9088 160.352 63.2965 160.253C62.8171 160.172 62.346 160.049 61.8891 159.883L63.0558 156.012C63.7973 156.275 64.5925 156.352 65.3706 156.234C65.7168 156.127 66.0321 155.938 66.29 155.684C66.5478 155.429 66.7407 155.116 66.8522 154.771L67.1483 153.975L60.4632 134.809H65.9077L69.7595 148.493H69.9632L73.852 134.809H79.4076L72.167 155.419C71.8487 156.363 71.3728 157.246 70.7596 158.031C70.1557 158.778 69.3806 159.368 68.5001 159.753C67.4428 160.208 66.2994 160.43 65.1484 160.401Z" fill="#1F7B44"/>
<path d="M81.9815 153.419V134.901H87.0001V138.159H87.1853C87.449 137.115 88.0553 136.189 88.9074 135.53C89.7045 134.939 90.6742 134.626 91.6666 134.641H92.5001L93.2962 134.789V139.364C92.9623 139.275 92.6218 139.213 92.2779 139.179C91.8913 139.123 91.5016 139.092 91.1112 139.085C90.4003 139.072 89.6982 139.245 89.0742 139.585C88.4903 139.907 88.004 140.381 87.6668 140.956C87.3185 141.565 87.1394 142.255 87.1482 142.956V153.511L81.9815 153.419Z" fill="#1F7B44"/>
<path d="M98.5553 132.42C97.8185 132.431 97.1069 132.151 96.5737 131.643C96.3154 131.409 96.1094 131.123 95.969 130.804C95.8286 130.485 95.7571 130.14 95.759 129.791C95.7571 129.442 95.8286 129.097 95.969 128.778C96.1094 128.459 96.3154 128.173 96.5737 127.939C97.1001 127.432 97.8056 127.151 98.5368 127.161C99.2796 127.148 99.9978 127.428 100.537 127.939C100.795 128.173 101.001 128.459 101.141 128.778C101.282 129.097 101.354 129.442 101.352 129.791C101.354 130.14 101.282 130.485 101.141 130.804C101.001 131.123 100.795 131.409 100.537 131.643C100.274 131.896 99.9634 132.095 99.6234 132.229C99.2834 132.362 98.9205 132.427 98.5553 132.42ZM95.9256 153.42V134.902H101.092V153.42H95.9256Z" fill="#1F7B44"/>
<path d="M113.666 153.807C111.944 153.855 110.241 153.432 108.741 152.584C107.375 151.796 106.278 150.616 105.592 149.196C104.827 147.643 104.446 145.927 104.481 144.196C104.444 142.458 104.825 140.737 105.592 139.177C106.301 137.767 107.4 136.591 108.759 135.788C110.247 134.943 111.937 134.52 113.648 134.566C115.117 134.535 116.574 134.839 117.907 135.455C119.077 136.013 120.079 136.87 120.815 137.937C121.526 139.046 121.929 140.324 121.981 141.641H117.111C117.007 140.793 116.622 140.004 116.018 139.4C115.713 139.11 115.352 138.884 114.958 138.738C114.563 138.592 114.143 138.527 113.722 138.548C112.972 138.526 112.236 138.754 111.629 139.195C111 139.668 110.518 140.311 110.241 141.047C109.884 142 109.714 143.013 109.741 144.029C109.713 145.064 109.883 146.094 110.241 147.066C110.508 147.808 110.992 148.453 111.629 148.918C112.234 149.365 112.97 149.6 113.722 149.585C114.275 149.592 114.821 149.464 115.315 149.214C115.795 148.972 116.203 148.608 116.5 148.159C116.826 147.65 117.035 147.074 117.111 146.474H121.981C121.922 147.786 121.526 149.061 120.833 150.177C120.122 151.261 119.13 152.131 117.963 152.696C116.64 153.403 115.167 153.784 113.666 153.807Z" fill="#1F7B44"/>
<path d="M133.796 153.808C132.075 153.853 130.372 153.451 128.852 152.641C127.492 151.868 126.386 150.716 125.667 149.327C124.895 147.736 124.514 145.983 124.556 144.215C124.518 142.465 124.899 140.732 125.667 139.159C126.376 137.755 127.476 136.585 128.834 135.789C130.277 134.951 131.924 134.528 133.593 134.567C134.767 134.558 135.933 134.76 137.037 135.16C138.083 135.542 139.036 136.141 139.834 136.919C140.658 137.761 141.29 138.772 141.685 139.882C142.154 141.214 142.379 142.619 142.352 144.031V145.456H126.63V142.308H137.5C137.513 141.615 137.34 140.931 137 140.327C136.69 139.761 136.229 139.293 135.667 138.975C135.064 138.632 134.379 138.459 133.685 138.475C132.955 138.461 132.236 138.653 131.611 139.03C131.014 139.374 130.521 139.873 130.185 140.474C129.841 141.084 129.662 141.774 129.667 142.474V145.531C129.646 146.357 129.824 147.175 130.185 147.919C130.505 148.568 131.016 149.104 131.648 149.456C132.331 149.84 133.106 150.033 133.889 150.012C134.424 150.021 134.956 149.939 135.463 149.771C135.917 149.62 136.334 149.374 136.685 149.049C137.04 148.718 137.307 148.305 137.463 147.845L142.241 148.16C142.02 149.279 141.509 150.319 140.759 151.178C139.969 152.06 138.978 152.74 137.871 153.16C136.568 153.639 135.184 153.859 133.796 153.808Z" fill="#1F7B44"/>
</g>
<defs>
<clipPath id="clip0_3248_14789">
<rect width="142.352" height="160" fill="white" transform="translate(0 0.400391)"/>
</clipPath>
</defs>
</svg>
